<svg xmlns="http://www.w3.org/2000/svg" width="7.343" height="12.5" viewBox="0 0 30 30">
  <g id="Group_99080" data-name="Group 99080" transform="translate(0 30) rotate(-90)">
    <g id="right-arrow" transform="translate(10 8.5)">
      <g id="Group_95369" data-name="Group 95369">
        <path id="Path_116957" data-name="Path 116957" d="M.2,6.737,5.762,12.3a.685.685,0,0,0,.967,0l.41-.41a.685.685,0,0,0,0-.967L2.468,6.252,7.144,1.576a.685.685,0,0,0,0-.967L6.734.2a.685.685,0,0,0-.967,0L.2,5.767a.69.69,0,0,0,0,.97Z" fill="#D8382C"/>
      </g>
    </g>
    <rect id="Rectangle_108651" data-name="Rectangle 108651" width="30" height="30" transform="translate(0 0)" fill="none"/>
  </g>
</svg>
